G04 Layer_Physical_Order=1*
G04 Layer_Color=255*
%FSLAX44Y44*%
%MOMM*%
G71*
G01*
G75*
%ADD10C,0.5000*%
%ADD11C,0.3000*%
%ADD12C,1.4000*%
%ADD13R,1.5000X1.5000*%
%ADD14C,1.5000*%
%ADD15R,1.5000X1.5000*%
D10*
X2752150Y1165860D02*
X2785038D01*
X2750880Y1167130D02*
X2752150Y1165860D01*
X2823150D02*
X2843470Y1186180D01*
X2628900Y1212850D02*
X2844800D01*
X2628900Y1187450D02*
X2635323Y1193873D01*
X2686050D01*
X2785038Y1165860D02*
X2813050Y1193873D01*
X2628900Y1162050D02*
X2633980D01*
X2655570Y1183640D01*
X2667000D01*
X2683510Y1167130D01*
X2731710D01*
X2750880D01*
X2660710D02*
X2678490Y1149350D01*
X2834640D01*
X2846070Y1160780D01*
X2843470Y1186180D02*
X2846070D01*
X2844800Y1212850D02*
X2846070Y1211580D01*
D11*
X2844800Y1187450D02*
X2846070Y1186180D01*
X2875117Y1165656D02*
X2872617Y1168155D01*
X2867619D01*
X2865120Y1165656D01*
Y1163157D01*
X2867619Y1160658D01*
X2872617D01*
X2875117Y1158158D01*
Y1155659D01*
X2872617Y1153160D01*
X2867619D01*
X2865120Y1155659D01*
X2880115Y1153160D02*
Y1168155D01*
X2890112Y1153160D01*
Y1168155D01*
X2895110D02*
X2900109D01*
X2897610D01*
Y1153160D01*
X2895110D01*
X2900109D01*
X2917603Y1168155D02*
X2907606D01*
Y1160658D01*
X2912605D01*
X2907606D01*
Y1153160D01*
X2932598D02*
X2922601D01*
X2932598Y1163157D01*
Y1165656D01*
X2930099Y1168155D01*
X2925101D01*
X2922601Y1165656D01*
X2876387Y1191691D02*
X2873888Y1194190D01*
X2868889D01*
X2866390Y1191691D01*
Y1189192D01*
X2868889Y1186693D01*
X2873888D01*
X2876387Y1184193D01*
Y1181694D01*
X2873888Y1179195D01*
X2868889D01*
X2866390Y1181694D01*
X2881385Y1179195D02*
Y1194190D01*
X2891382Y1179195D01*
Y1194190D01*
X2896380D02*
X2901379D01*
X2898879D01*
Y1179195D01*
X2896380D01*
X2901379D01*
X2918873Y1194190D02*
X2908876D01*
Y1186693D01*
X2913875D01*
X2908876D01*
Y1179195D01*
X2923871D02*
X2928870D01*
X2926371D01*
Y1194190D01*
X2923871Y1191691D01*
X2877657Y1217726D02*
X2875157Y1220225D01*
X2870159D01*
X2867660Y1217726D01*
Y1207729D01*
X2870159Y1205230D01*
X2875157D01*
X2877657Y1207729D01*
Y1212728D01*
X2872658D01*
X2882655Y1205230D02*
Y1220225D01*
X2892652Y1205230D01*
Y1220225D01*
X2897650D02*
Y1205230D01*
X2905148D01*
X2907647Y1207729D01*
Y1217726D01*
X2905148Y1220225D01*
X2897650D01*
X2570317Y1218996D02*
X2567818Y1221495D01*
X2562819D01*
X2560320Y1218996D01*
Y1208999D01*
X2562819Y1206500D01*
X2567818D01*
X2570317Y1208999D01*
Y1213998D01*
X2565318D01*
X2575315Y1206500D02*
Y1221495D01*
X2585312Y1206500D01*
Y1221495D01*
X2590310D02*
Y1206500D01*
X2597808D01*
X2600307Y1208999D01*
Y1218996D01*
X2597808Y1221495D01*
X2590310D01*
X2561590Y1195460D02*
Y1185463D01*
X2566588Y1180465D01*
X2571587Y1185463D01*
Y1195460D01*
X2586582Y1192961D02*
X2584083Y1195460D01*
X2579084D01*
X2576585Y1192961D01*
Y1182964D01*
X2579084Y1180465D01*
X2584083D01*
X2586582Y1182964D01*
X2601577Y1192961D02*
X2599078Y1195460D01*
X2594080D01*
X2591580Y1192961D01*
Y1182964D01*
X2594080Y1180465D01*
X2599078D01*
X2601577Y1182964D01*
X2570317Y1166926D02*
X2567818Y1169425D01*
X2562819D01*
X2560320Y1166926D01*
Y1164427D01*
X2562819Y1161928D01*
X2567818D01*
X2570317Y1159428D01*
Y1156929D01*
X2567818Y1154430D01*
X2562819D01*
X2560320Y1156929D01*
X2575315Y1154430D02*
Y1169425D01*
X2585312Y1154430D01*
Y1169425D01*
X2590310D02*
X2595309D01*
X2592809D01*
Y1154430D01*
X2590310D01*
X2595309D01*
X2612803Y1169425D02*
X2602806D01*
Y1161928D01*
X2607805D01*
X2602806D01*
Y1154430D01*
D12*
X2813050Y1193873D02*
D03*
X2686050D02*
D03*
D13*
X2846070Y1160780D02*
D03*
X2628900Y1212850D02*
D03*
D14*
X2846070Y1186180D02*
D03*
Y1211580D02*
D03*
X2660710Y1167130D02*
D03*
X2823150D02*
D03*
X2628900Y1187450D02*
D03*
Y1162050D02*
D03*
D15*
X2731710Y1167130D02*
D03*
X2752150D02*
D03*
M02*
